<mxfile host="app.diagrams.net" modified="2023-12-22T07:25:09.694Z" agent="Mozilla/5.0 (Windows NT 10.0; Win64; x64) AppleWebKit/537.36 (KHTML, like Gecko) Chrome/120.0.0.0 Safari/537.36 Edg/120.0.0.0" etag="-t3LhSYqUT0TdfX9go2c" version="22.1.11" type="github">
  <diagram name="第 1 页" id="h0Z5xLHbn0_MXaW2kXkN">
    <mxGraphModel dx="1002" dy="543" grid="1" gridSize="10" guides="1" tooltips="1" connect="1" arrows="1" fold="1" page="1" pageScale="1" pageWidth="827" pageHeight="1169" math="0" shadow="0">
      <root>
        <mxCell id="0" />
        <mxCell id="1" parent="0" />
        <mxCell id="i6rZyQPo1T3z3Nnxfi7o-15" style="edgeStyle=orthogonalEdgeStyle;rounded=0;orthogonalLoop=1;jettySize=auto;html=1;entryX=0;entryY=0.5;entryDx=0;entryDy=0;" edge="1" parent="1" source="i6rZyQPo1T3z3Nnxfi7o-1" target="i6rZyQPo1T3z3Nnxfi7o-5">
          <mxGeometry relative="1" as="geometry" />
        </mxCell>
        <mxCell id="i6rZyQPo1T3z3Nnxfi7o-1" value="导入任务信息" style="ellipse;whiteSpace=wrap;html=1;" vertex="1" parent="1">
          <mxGeometry x="130" y="110" width="120" height="80" as="geometry" />
        </mxCell>
        <mxCell id="i6rZyQPo1T3z3Nnxfi7o-3" value="" style="endArrow=classic;html=1;rounded=0;entryX=0;entryY=0.5;entryDx=0;entryDy=0;" edge="1" parent="1" target="i6rZyQPo1T3z3Nnxfi7o-1">
          <mxGeometry width="50" height="50" relative="1" as="geometry">
            <mxPoint x="20" y="150" as="sourcePoint" />
            <mxPoint x="440" y="170" as="targetPoint" />
          </mxGeometry>
        </mxCell>
        <mxCell id="i6rZyQPo1T3z3Nnxfi7o-4" value="不文明数据" style="edgeLabel;html=1;align=center;verticalAlign=middle;resizable=0;points=[];" vertex="1" connectable="0" parent="i6rZyQPo1T3z3Nnxfi7o-3">
          <mxGeometry x="-0.2057" y="-2" relative="1" as="geometry">
            <mxPoint y="-12" as="offset" />
          </mxGeometry>
        </mxCell>
        <mxCell id="i6rZyQPo1T3z3Nnxfi7o-16" style="edgeStyle=orthogonalEdgeStyle;rounded=0;orthogonalLoop=1;jettySize=auto;html=1;" edge="1" parent="1" source="i6rZyQPo1T3z3Nnxfi7o-5" target="i6rZyQPo1T3z3Nnxfi7o-9">
          <mxGeometry relative="1" as="geometry" />
        </mxCell>
        <mxCell id="i6rZyQPo1T3z3Nnxfi7o-17" style="edgeStyle=orthogonalEdgeStyle;rounded=0;orthogonalLoop=1;jettySize=auto;html=1;entryX=0.5;entryY=0;entryDx=0;entryDy=0;curved=1;" edge="1" parent="1" source="i6rZyQPo1T3z3Nnxfi7o-5" target="i6rZyQPo1T3z3Nnxfi7o-7">
          <mxGeometry relative="1" as="geometry" />
        </mxCell>
        <mxCell id="i6rZyQPo1T3z3Nnxfi7o-5" value="发布任务" style="ellipse;whiteSpace=wrap;html=1;" vertex="1" parent="1">
          <mxGeometry x="300" y="110" width="120" height="80" as="geometry" />
        </mxCell>
        <mxCell id="i6rZyQPo1T3z3Nnxfi7o-21" style="edgeStyle=orthogonalEdgeStyle;rounded=0;orthogonalLoop=1;jettySize=auto;html=1;curved=1;" edge="1" parent="1" source="i6rZyQPo1T3z3Nnxfi7o-7" target="i6rZyQPo1T3z3Nnxfi7o-13">
          <mxGeometry relative="1" as="geometry" />
        </mxCell>
        <mxCell id="i6rZyQPo1T3z3Nnxfi7o-7" value="任务记录" style="shape=process;whiteSpace=wrap;html=1;backgroundOutline=1;" vertex="1" parent="1">
          <mxGeometry x="180" y="260" width="120" height="60" as="geometry" />
        </mxCell>
        <mxCell id="i6rZyQPo1T3z3Nnxfi7o-23" style="edgeStyle=orthogonalEdgeStyle;rounded=0;orthogonalLoop=1;jettySize=auto;html=1;curved=1;" edge="1" parent="1" source="i6rZyQPo1T3z3Nnxfi7o-8" target="i6rZyQPo1T3z3Nnxfi7o-12">
          <mxGeometry relative="1" as="geometry" />
        </mxCell>
        <mxCell id="i6rZyQPo1T3z3Nnxfi7o-8" value="任务执行状况记录" style="shape=process;whiteSpace=wrap;html=1;backgroundOutline=1;" vertex="1" parent="1">
          <mxGeometry x="440" y="260" width="120" height="60" as="geometry" />
        </mxCell>
        <mxCell id="i6rZyQPo1T3z3Nnxfi7o-22" style="edgeStyle=orthogonalEdgeStyle;rounded=0;orthogonalLoop=1;jettySize=auto;html=1;curved=1;" edge="1" parent="1" source="i6rZyQPo1T3z3Nnxfi7o-9" target="i6rZyQPo1T3z3Nnxfi7o-8">
          <mxGeometry relative="1" as="geometry" />
        </mxCell>
        <mxCell id="i6rZyQPo1T3z3Nnxfi7o-24" style="edgeStyle=orthogonalEdgeStyle;rounded=0;orthogonalLoop=1;jettySize=auto;html=1;" edge="1" parent="1" source="i6rZyQPo1T3z3Nnxfi7o-9" target="i6rZyQPo1T3z3Nnxfi7o-11">
          <mxGeometry relative="1" as="geometry" />
        </mxCell>
        <mxCell id="i6rZyQPo1T3z3Nnxfi7o-9" value="接收任务" style="ellipse;whiteSpace=wrap;html=1;" vertex="1" parent="1">
          <mxGeometry x="490" y="110" width="120" height="80" as="geometry" />
        </mxCell>
        <mxCell id="i6rZyQPo1T3z3Nnxfi7o-26" style="edgeStyle=orthogonalEdgeStyle;rounded=0;orthogonalLoop=1;jettySize=auto;html=1;curved=1;" edge="1" parent="1" source="i6rZyQPo1T3z3Nnxfi7o-10" target="i6rZyQPo1T3z3Nnxfi7o-14">
          <mxGeometry relative="1" as="geometry" />
        </mxCell>
        <mxCell id="i6rZyQPo1T3z3Nnxfi7o-10" value="人物信息记录" style="shape=process;whiteSpace=wrap;html=1;backgroundOutline=1;" vertex="1" parent="1">
          <mxGeometry x="650" y="260" width="120" height="60" as="geometry" />
        </mxCell>
        <mxCell id="i6rZyQPo1T3z3Nnxfi7o-25" style="edgeStyle=orthogonalEdgeStyle;rounded=0;orthogonalLoop=1;jettySize=auto;html=1;curved=1;" edge="1" parent="1" source="i6rZyQPo1T3z3Nnxfi7o-11" target="i6rZyQPo1T3z3Nnxfi7o-10">
          <mxGeometry relative="1" as="geometry" />
        </mxCell>
        <mxCell id="i6rZyQPo1T3z3Nnxfi7o-11" value="提交任务结果（人物信息）" style="ellipse;whiteSpace=wrap;html=1;" vertex="1" parent="1">
          <mxGeometry x="690" y="110" width="120" height="80" as="geometry" />
        </mxCell>
        <mxCell id="i6rZyQPo1T3z3Nnxfi7o-12" value="完成情况统计" style="ellipse;whiteSpace=wrap;html=1;" vertex="1" parent="1">
          <mxGeometry x="420" y="380" width="120" height="80" as="geometry" />
        </mxCell>
        <mxCell id="i6rZyQPo1T3z3Nnxfi7o-13" value="任务统计" style="ellipse;whiteSpace=wrap;html=1;" vertex="1" parent="1">
          <mxGeometry x="140" y="380" width="120" height="80" as="geometry" />
        </mxCell>
        <mxCell id="i6rZyQPo1T3z3Nnxfi7o-27" style="edgeStyle=orthogonalEdgeStyle;rounded=0;orthogonalLoop=1;jettySize=auto;html=1;curved=1;" edge="1" parent="1" source="i6rZyQPo1T3z3Nnxfi7o-14" target="i6rZyQPo1T3z3Nnxfi7o-18">
          <mxGeometry relative="1" as="geometry" />
        </mxCell>
        <mxCell id="i6rZyQPo1T3z3Nnxfi7o-14" value="目标信息分析整合" style="ellipse;whiteSpace=wrap;html=1;" vertex="1" parent="1">
          <mxGeometry x="670" y="380" width="120" height="80" as="geometry" />
        </mxCell>
        <mxCell id="i6rZyQPo1T3z3Nnxfi7o-28" style="edgeStyle=orthogonalEdgeStyle;rounded=0;orthogonalLoop=1;jettySize=auto;html=1;curved=1;" edge="1" parent="1" source="i6rZyQPo1T3z3Nnxfi7o-18" target="i6rZyQPo1T3z3Nnxfi7o-19">
          <mxGeometry relative="1" as="geometry" />
        </mxCell>
        <mxCell id="i6rZyQPo1T3z3Nnxfi7o-18" value="目标人物统计" style="ellipse;whiteSpace=wrap;html=1;" vertex="1" parent="1">
          <mxGeometry x="590" y="520" width="120" height="80" as="geometry" />
        </mxCell>
        <mxCell id="i6rZyQPo1T3z3Nnxfi7o-29" style="edgeStyle=orthogonalEdgeStyle;rounded=0;orthogonalLoop=1;jettySize=auto;html=1;entryX=1;entryY=0.5;entryDx=0;entryDy=0;curved=1;" edge="1" parent="1" source="i6rZyQPo1T3z3Nnxfi7o-19" target="i6rZyQPo1T3z3Nnxfi7o-20">
          <mxGeometry relative="1" as="geometry" />
        </mxCell>
        <mxCell id="i6rZyQPo1T3z3Nnxfi7o-19" value="查看任务结果" style="ellipse;whiteSpace=wrap;html=1;" vertex="1" parent="1">
          <mxGeometry x="360" y="545" width="120" height="80" as="geometry" />
        </mxCell>
        <mxCell id="i6rZyQPo1T3z3Nnxfi7o-30" style="edgeStyle=orthogonalEdgeStyle;rounded=0;orthogonalLoop=1;jettySize=auto;html=1;entryX=0;entryY=0.5;entryDx=0;entryDy=0;curved=1;" edge="1" parent="1" source="i6rZyQPo1T3z3Nnxfi7o-20" target="i6rZyQPo1T3z3Nnxfi7o-12">
          <mxGeometry relative="1" as="geometry" />
        </mxCell>
        <mxCell id="i6rZyQPo1T3z3Nnxfi7o-20" value="公布结果和激励" style="ellipse;whiteSpace=wrap;html=1;" vertex="1" parent="1">
          <mxGeometry x="130" y="545" width="120" height="80" as="geometry" />
        </mxCell>
      </root>
    </mxGraphModel>
  </diagram>
</mxfile>
